<?xml version="1.0" standalone="no"?>
<!DOCTYPE svg PUBLIC "-//W3C//DTD SVG 20010904//EN"
 "http://www.w3.org/TR/2001/REC-SVG-20010904/DTD/svg10.dtd">
<svg version="1.0" xmlns="http://www.w3.org/2000/svg"
 width="250.000000pt" height="250.000000pt" viewBox="0 0 250.000000 250.000000"
 preserveAspectRatio="xMidYMid meet">
<metadata>
Created by potrace 1.15, written by Peter Selinger 2001-2017
</metadata>
<g transform="translate(0.000000,250.000000) scale(0.100000,-0.100000)"
fill="#000000" stroke="none">
<path d="M1132 2130 c-385 -53 -679 -326 -756 -702 -20 -99 -20 -272 0 -379
66 -347 314 -590 591 -578 46 2 68 -3 109 -23 113 -59 280 -80 424 -54 277 50
527 303 600 609 55 227 31 451 -70 652 -87 175 -203 293 -372 381 -151 77
-366 116 -526 94z m256 -166 c153 -31 288 -107 390 -218 70 -77 115 -156 154
-267 30 -89 32 -102 32 -234 1 -163 -13 -224 -77 -355 -33 -69 -58 -102 -132
-175 -96 -96 -155 -132 -261 -160 -84 -22 -246 -17 -271 9 -3 3 10 22 28 43
19 21 41 47 49 59 12 17 30 22 88 27 414 34 560 659 232 987 -106 106 -219
150 -383 150 -156 0 -279 -51 -388 -161 -110 -110 -165 -245 -176 -434 -10
-180 34 -386 112 -518 19 -31 31 -57 26 -57 -4 0 -26 13 -47 28 -224 164 -312
517 -204 814 16 45 48 110 71 144 47 73 166 190 232 228 159 94 349 126 525
90z m1 -316 c107 -40 207 -167 240 -303 39 -157 -14 -348 -121 -439 -36 -31
-95 -59 -106 -50 -2 1 6 32 17 68 26 85 45 270 37 363 -16 174 -82 253 -212
253 -163 0 -244 -125 -244 -374 0 -189 30 -284 116 -376 l45 -48 -52 -46 c-28
-25 -55 -46 -59 -46 -5 0 -31 25 -58 56 -104 117 -151 247 -159 444 -6 140 6
208 54 307 89 182 305 264 502 191z m-134 -254 c46 -18 67 -160 46 -317 -23
-170 -59 -220 -107 -149 -30 44 -44 115 -44 222 0 119 15 187 50 222 31 31 31
31 55 22z"/>
</g>
</svg>
