<?xml version="1.0" encoding="utf-8"?>
<svg version="1.1" xmlns="http://www.w3.org/2000/svg" xmlns:xlink="http://www.w3.org/1999/xlink" x="0px" y="0px" viewBox="0 0 1000 1000" enable-background="new 0 0 1000 1000" xml:space="preserve">
<g><g><g><circle cx="353.7" cy="110.4" r="100.4"/><path d="M613.5,10c55.4,0,100.4,44.9,100.4,100.4c0,55.4-44.9,100.4-100.4,100.4c-55.4,0-100.4-44.9-100.4-100.4C513.1,54.9,558,10,613.5,10z"/><path d="M701.4,775.6c-1,0.1-2.1,0.1-3.1,0.1c-21.4,0-38.9-17.5-38.9-38.9c0-121.5,76.3-172.1,79.5-174.2c0.7-0.5,1.4-0.9,2.2-1.2c0,0,0.1,0,0.1-0.1c-0.1-0.5-0.2-0.9-0.3-1.4c-16.7-14.2-27.4-35.3-27.4-58.9c0-11.4,2.5-22.1,6.9-31.8c-1.6-6.9-3-12.8-4.1-17.3v-75.1c8.7,18.1,15.4,40.8,19.4,70c14-14.3,33.5-23.2,55.1-23.2c7.1,0,13.9,1,20.4,2.8C792.9,314.2,737.4,270,680.7,235.2c-2-1.2-4.1-2.2-6.2-3c-11.2-7.4-23.7-12.8-36.5-15.9c-0.1,0-0.2,0-0.2,0l-24.2,25.4l-25-25.2c-13.9,3.4-27.5,9.6-39.4,18.1c-0.4,0.2-0.7,0.3-1.1,0.5c-22.2,13.6-44.3,28.7-64,48.8c-19.6-20.9-42.2-37.2-65.6-51.6c-3.4-2.1-7.1-3.4-10.8-4.4c-9.1-5.1-19-9-28.9-11.4l-25,25.2l-24.2-25.4c-0.1,0-0.2,0-0.2,0c-12.8,3.1-25.3,8.5-36.5,15.9c-2.1,0.8-4.2,1.8-6.2,3c-59.5,36.5-113.8,86.7-123.6,197.2c10.6-5.5,22.6-8.7,35.4-8.7c15.6,0,30.2,4.7,42.3,12.8c1.9-19.5,5.4-35.9,10.5-50.1v58.6c14.6,13.9,23.7,33.5,23.7,55.2c0,19.5-7.4,37.2-19.4,50.7c0.4,1.3,0.8,2.6,1.4,3.9c-0.3,2-0.5,4.1-0.5,6.2v4.5c0.4,0.3,0.8,0.6,1.1,0.9c14.1,10.5,74.6,61.6,74.6,169.2c0,21.3-17.3,38.6-38.6,38.6c-8.1,0-15.7-2.5-21.9-6.8c-0.3,0.7-0.6,1.4-0.9,2l0,187c0,3.5-0.4,6.8-1.2,10c8.4,8.6,20,13.9,32.9,13.9c25.4,0,46.1-20.6,46.1-46.1l-0.1-320.3c1.8,0.1,3.6,0.2,5.5,0.2c0.4,0,0.7,0,1.1,0l0,320.1c0,25.4,20.6,46.1,46.1,46.1c25.4,0,46.1-20.6,46.1-46l0-370.9c0.6-1.1,1.2-2.2,1.7-3.4c0.6,0,1.1,0.2,1.7,0.2c0.2,0,0.4,0,0.6,0c11.5-0.2,21.8-5.3,28.8-13.4c2.5,2.2,5.3,4.1,8.3,5.7c-16.1,73-34.1,158.3-34.2,177c-0.1,15.3,27.5,28.4,66.5,36.7V934c0,25.4,20.6,46,46.1,46c25.4,0,46.1-20.6,46.1-46.1V775.2c2.2,0,4.4,0,6.5,0l0,158.8c0,25.4,20.6,46,46.1,46.1c25.4,0,46-20.6,46-46l0-76.8h-24.2L701.4,775.6z"/><path d="M202.9,440.2c32.4,0,58.7,26.3,58.7,58.7c0,32.4-26.3,58.7-58.7,58.7c-32.4,0-58.7-26.3-58.7-58.7C144.1,466.5,170.4,440.2,202.9,440.2z"/><path d="M297.9,755.1c11.5,0,20.9-9.3,20.9-20.9c0-100.7-56-146.6-68-155.4c-4.1-3.6-9.3-7.3-16.3-11.1c-5.4-3-11.1-5.2-16.9-6.7l-14.6,14.7l-14.2-14.9c0,0-0.1,0-0.1,0.1c-9.1,2.2-18,6.5-25.5,12.4c-0.6,0.3-1.3,0.6-1.9,1c-2.9,1.8-70.3,46.6-70.3,157c0,11.5,9.3,20.9,20.9,20.9c11.5,0,20.9-9.4,20.9-20.9c0-25.1,4.2-45.6,10.1-62.4v72.9c0,6.1,1.2,11.8,3.3,17.1c-0.2,1.2-0.3,2.4-0.3,3.6l0,192.5c0,14.9,12.1,26.9,26.9,26.9c14.9,0,26.9-12.1,26.9-26.9V793.5c1.1,0.1,2.1,0.1,3.2,0.1c0.2,0,0.4,0,0.6,0V955c0,14.9,12.1,26.9,26.9,26.9c14.9,0,27-12.1,27-26.9l0-191.1c3.5-6.5,5.6-13.9,5.6-22.1v-80c7.9,18.3,14,42,14,72.4C277,745.7,286.4,755.1,297.9,755.1z"/><path d="M791.5,440.2c32.9,0,59.6,26.7,59.6,59.6c0,32.9-26.7,59.6-59.6,59.6c-32.9,0-59.6-26.7-59.6-59.6C731.9,466.9,758.6,440.2,791.5,440.2z"/><path d="M840.1,580.9c-4.1-3.7-9.4-7.4-16.6-11.2c-5.4-3-11.3-5.3-17.2-6.8l-14.8,15l-14.4-15.1c0,0-0.1,0-0.2,0c-9.3,2.2-18.2,6.6-25.8,12.6c-0.6,0.3-1.3,0.6-1.9,1c-2.9,1.9-71.4,47.3-71.4,159.3c0,11.7,9.5,21.2,21.2,21.2c11.7,0,21.2-9.5,21.2-21.2c0-25.5,4.2-46.3,10.3-63.3v43.5l-21.7,122.5h24.7l0,124.3c0,15.1,12.2,27.4,27.3,27.4c15.1,0,27.3-12.3,27.3-27.4V838.4h3.9v124.3c0,15.1,12.2,27.3,27.3,27.3c15.1,0,27.4-12.2,27.4-27.3V838.4H874l-21.5-121.5v-51.7c8.1,18.6,14.2,42.7,14.2,73.4c0,11.7,9.5,21.2,21.2,21.2c11.7,0,21.2-9.5,21.2-21.2C909.1,636.4,852.3,589.7,840.1,580.9z"/></g></g><g></g><g></g><g></g><g></g><g></g><g></g><g></g><g></g><g></g><g></g><g></g><g></g><g></g><g></g><g></g></g>
</svg>