<?xml version="1.0" encoding="utf-8"?>
<svg version="1.1" xmlns="http://www.w3.org/2000/svg" xmlns:xlink="http://www.w3.org/1999/xlink" x="0px" y="0px" viewBox="0 0 1000 1000" enable-background="new 0 0 1000 1000" xml:space="preserve">
<g><g><g id="Battery_Charging"><g><path d="M928.8,346.9h-61.3c0-50.6-41.2-91.9-91.9-91.9H101.9C51.2,255,10,296.2,10,346.9v306.3c0,50.7,41.2,91.9,91.9,91.9h673.8c50.7,0,91.9-41.2,91.9-91.9h61.3c33.8,0,61.3-27.5,61.3-61.3V408.1C990,374.3,962.5,346.9,928.8,346.9z M806.3,653.1c0,16.9-13.7,30.6-30.6,30.6H101.9c-16.9,0-30.6-13.7-30.6-30.6V346.9c0-16.9,13.7-30.6,30.6-30.6h673.8c16.9,0,30.6,13.7,30.6,30.6V653.1z M928.8,591.9h-61.3V408.1h61.3V591.9z M588.6,404.9c-7.5-15.1-27.5-27.4-44.3-27.4H163.1c-16.8,0-30.6,13.8-30.6,30.6v183.8c0,16.8,13.8,30.6,30.6,30.6h503.7c16.8,0,24.5-12.3,16.9-27.4L588.6,404.9z"/></g></g></g><g></g><g></g><g></g><g></g><g></g><g></g><g></g><g></g><g></g><g></g><g></g><g></g><g></g><g></g><g></g></g>
</svg>